<svg xmlns="http://www.w3.org/2000/svg"><symbol id="bongs" viewBox="0 0 48 48"><g stroke="currentColor" stroke-width="1.6" stroke-linecap="round" stroke-linejoin="round"><path d="M20 5h8m-6 0v18l-7 13q-2 5 3 5h12q5 0 3-5l-7-13V5M18 33h12m-1-5 7-6 4 4-7 7M20 9h8"/></g></symbol><symbol id="macaricos" viewBox="0 0 48 48"><g stroke="currentColor" stroke-width="1.6" stroke-linecap="round" stroke-linejoin="round"><path d="M19 25h13v16H19zM22 25V15h7v10M29 15h8v-6H22q-5 0-5 5v4h5M19 37h13M37 10l5 2-5 2"/></g></symbol><symbol id="acessorios" viewBox="0 0 48 48"><g stroke="currentColor" stroke-width="1.6" stroke-linecap="round" stroke-linejoin="round"><path d="M13 10h14v14q0 5-7 5t-7-5V10Zm0 5h14m0 7h6q4 0 4 4v12m-4 0h8M16 29v5h8v-5"/></g></symbol><symbol id="armazenamento" viewBox="0 0 48 48"><g stroke="currentColor" stroke-width="1.6" stroke-linecap="round" stroke-linejoin="round"><path d="M13 14h22v6H13zM15 20v17q0 4 4 4h10q4 0 4-4V20M16 9h16v5M19 25h10"/></g></symbol><symbol id="papelaria" viewBox="0 0 48 48"><g stroke="currentColor" stroke-width="1.6" stroke-linecap="round" stroke-linejoin="round"><path d="m12 33 10-24 15 6-10 24-15-6Zm5-1 8-18 8 3M27 39l-10 3-5-9"/></g></symbol><symbol id="limpeza" viewBox="0 0 48 48"><g stroke="currentColor" stroke-width="1.6" stroke-linecap="round" stroke-linejoin="round"><path d="M13 18h12v23H13zM16 18v-7h6v7M15 11h12V7H15m10 3h5M33 24l5-17m-7 19 6 2-3 13-6-2 3-13Zm-2 6 6 2"/></g></symbol></svg>